<svg width="24" height="24" viewBox="0 0 24 24" fill="none" xmlns="http://www.w3.org/2000/svg">
<g clip-path="url(#clip0_6455_3550)">
<path d="M19.1786 24.0273H4.77852C3.78853 24.0273 2.97852 23.3249 2.97852 22.4664V14.3103C2.98437 14.0472 3.05797 13.7902 3.19208 13.5644C3.32619 13.3386 3.51622 13.1519 3.74352 13.0225L11.9785 8.02734L20.2135 13.0225C20.4439 13.1482 20.6366 13.334 20.7712 13.5606C20.9058 13.7872 20.9774 14.0462 20.9785 14.3103V22.4664C20.9786 23.3248 20.1686 24.0273 19.1786 24.0273Z" fill="#78909C"/>
<path d="M6.97852 10.0273H16.9785V21.0273H6.97852V10.0273Z" fill="white" stroke="#741B47" stroke-width="0.2169" stroke-miterlimit="10"/>
<path d="M11.9785 11.0273L8.97852 15.0273H14.9785L11.9785 11.0273Z" fill="#741B47"/>
<path d="M19.1783 24.0273H4.77849C3.78852 24.0273 2.97852 23.3523 2.97852 22.5273V15.0273L11.9785 19.9023L20.9785 15.0273V22.5273C20.9783 23.3523 20.1683 24.0273 19.1783 24.0273Z" fill="#CFD8DC"/>
<path d="M11.9785 20.0273L12.9785 19.4849V15.0273H10.9785V19.4849L11.9785 20.0273Z" fill="#741B47"/>
<rect y="2" width="24" height="5" fill="#741B47"/>
<path d="M22.2678 5.37391C22.2439 5.37391 22.2244 5.36632 22.2093 5.35116C22.1941 5.33599 22.1865 5.31649 22.1865 5.29266V3.14766C22.1865 3.12382 22.1941 3.10432 22.2093 3.08916C22.2244 3.07399 22.2439 3.06641 22.2678 3.06641H22.5928C22.6144 3.06641 22.6329 3.07399 22.648 3.08916C22.6632 3.10432 22.6708 3.12382 22.6708 3.14766V5.29266C22.6708 5.31649 22.6632 5.33599 22.648 5.35116C22.6329 5.36632 22.6144 5.37391 22.5928 5.37391H22.2678Z" fill="white"/>
<path d="M20.7982 5.40734C20.6833 5.40734 20.5804 5.38568 20.4894 5.34234C20.3984 5.29684 20.3258 5.23618 20.2717 5.16034C20.2175 5.08451 20.1904 5.00001 20.1904 4.90684C20.1904 4.75301 20.2522 4.63168 20.3757 4.54284C20.5013 4.45401 20.666 4.39334 20.8697 4.36084L21.2954 4.29909V4.24059C21.2954 4.15609 21.2759 4.09109 21.2369 4.04559C21.1979 4.00009 21.1297 3.97734 21.0322 3.97734C20.9607 3.97734 20.9033 3.99143 20.8599 4.01959C20.8166 4.04776 20.783 4.08459 20.7592 4.13009C20.7418 4.15826 20.7169 4.17234 20.6844 4.17234H20.3757C20.3518 4.17234 20.3334 4.16584 20.3204 4.15284C20.3074 4.13768 20.302 4.12034 20.3042 4.10084C20.3042 4.06401 20.3183 4.02068 20.3464 3.97084C20.3746 3.92101 20.4179 3.87226 20.4764 3.82459C20.5349 3.77476 20.6097 3.73359 20.7007 3.70109C20.7917 3.66859 20.9033 3.65234 21.0354 3.65234C21.1719 3.65234 21.2889 3.66859 21.3864 3.70109C21.4839 3.73359 21.5619 3.77909 21.6204 3.83759C21.6789 3.89609 21.7223 3.96434 21.7504 4.04234C21.7786 4.11818 21.7927 4.20051 21.7927 4.28934V5.29359C21.7927 5.31743 21.7851 5.33693 21.7699 5.35209C21.7548 5.36726 21.7353 5.37484 21.7114 5.37484H21.3929C21.3713 5.37484 21.3528 5.36726 21.3377 5.35209C21.3225 5.33693 21.3149 5.31743 21.3149 5.29359V5.17334C21.2868 5.21451 21.2488 5.25351 21.2012 5.29034C21.1535 5.32501 21.0961 5.35318 21.0289 5.37484C20.9639 5.39651 20.887 5.40734 20.7982 5.40734ZM20.9282 5.06934C20.9997 5.06934 21.0636 5.05418 21.1199 5.02384C21.1763 4.99351 21.2207 4.94693 21.2532 4.88409C21.2857 4.82126 21.3019 4.74218 21.3019 4.64684V4.59159L20.9997 4.64034C20.8827 4.65984 20.7971 4.68909 20.7429 4.72809C20.6888 4.76709 20.6617 4.81476 20.6617 4.87109C20.6617 4.91226 20.6736 4.94801 20.6974 4.97834C20.7234 5.00868 20.757 5.03143 20.7982 5.04659C20.8393 5.06176 20.8827 5.06934 20.9282 5.06934Z" fill="white"/>
<path d="M19.657 5.37391C19.5226 5.37391 19.4078 5.35224 19.3125 5.30891C19.2171 5.26341 19.1446 5.19407 19.0947 5.10091C19.0471 5.00774 19.0232 4.89074 19.0232 4.74991V4.06741H18.7697C18.7459 4.06741 18.7264 4.05982 18.7112 4.04466C18.6961 4.02949 18.6885 4.00999 18.6885 3.98616V3.76516C18.6885 3.74132 18.6961 3.72182 18.7112 3.70666C18.7264 3.69149 18.7459 3.68391 18.7697 3.68391H19.0232V3.14766C19.0232 3.12382 19.0308 3.10432 19.046 3.08916C19.0633 3.07399 19.0828 3.06641 19.1045 3.06641H19.423C19.4468 3.06641 19.4663 3.07399 19.4815 3.08916C19.4966 3.10432 19.5042 3.12382 19.5042 3.14766V3.68391H19.9105C19.9321 3.68391 19.9506 3.69149 19.9657 3.70666C19.9809 3.72182 19.9885 3.74132 19.9885 3.76516V3.98616C19.9885 4.00999 19.9809 4.02949 19.9657 4.04466C19.9506 4.05982 19.9321 4.06741 19.9105 4.06741H19.5042V4.71091C19.5042 4.79324 19.5183 4.85824 19.5465 4.90591C19.5768 4.95141 19.6288 4.97416 19.7025 4.97416H19.9397C19.9614 4.97416 19.9798 4.98174 19.995 4.99691C20.0101 5.01207 20.0177 5.03049 20.0177 5.05216V5.29266C20.0177 5.31649 20.0101 5.33599 19.995 5.35116C19.9798 5.36632 19.9614 5.37391 19.9397 5.37391H19.657Z" fill="white"/>
<path d="M18.0301 5.37575C18.0085 5.37575 17.9901 5.36817 17.9749 5.353C17.9597 5.33783 17.9521 5.31833 17.9521 5.2945V3.767C17.9521 3.74317 17.9597 3.72367 17.9749 3.7085C17.9901 3.69333 18.0085 3.68575 18.0301 3.68575H18.3551C18.379 3.68575 18.3985 3.69333 18.4136 3.7085C18.4288 3.72367 18.4364 3.74317 18.4364 3.767V5.2945C18.4364 5.31833 18.4288 5.33783 18.4136 5.353C18.3985 5.36817 18.379 5.37575 18.3551 5.37575H18.0301ZM18.0204 3.42575C17.9987 3.42575 17.9803 3.41817 17.9651 3.403C17.95 3.38783 17.9424 3.36833 17.9424 3.3445V3.0845C17.9424 3.06067 17.95 3.04117 17.9651 3.026C17.9803 3.00867 17.9987 3 18.0204 3H18.3616C18.3855 3 18.405 3.00867 18.4201 3.026C18.4375 3.04117 18.4461 3.06067 18.4461 3.0845V3.3445C18.4461 3.36833 18.4375 3.38783 18.4201 3.403C18.405 3.41817 18.3855 3.42575 18.3616 3.42575H18.0204Z" fill="white"/>
<path d="M16.7141 6.08984C16.5538 6.08984 16.4205 6.06818 16.3144 6.02484C16.2082 5.98368 16.1237 5.93276 16.0609 5.87209C16.0002 5.81359 15.9569 5.75509 15.9309 5.69659C15.9049 5.63809 15.8908 5.59259 15.8886 5.56009C15.8864 5.53626 15.894 5.51676 15.9114 5.50159C15.9287 5.48643 15.9482 5.47884 15.9699 5.47884H16.3176C16.3371 5.47884 16.3534 5.48318 16.3664 5.49184C16.3815 5.50268 16.3935 5.52001 16.4021 5.54384C16.413 5.56984 16.4281 5.59693 16.4476 5.62509C16.4671 5.65543 16.4964 5.68034 16.5354 5.69984C16.5765 5.71934 16.6307 5.72909 16.6979 5.72909C16.7737 5.72909 16.8365 5.71826 16.8864 5.69659C16.9362 5.67493 16.973 5.63809 16.9969 5.58609C17.0229 5.53409 17.0359 5.46368 17.0359 5.37484V5.15709C16.9839 5.21343 16.9178 5.26001 16.8376 5.29684C16.7596 5.33368 16.6632 5.35209 16.5484 5.35209C16.4357 5.35209 16.336 5.33476 16.2494 5.30009C16.1649 5.26326 16.0945 5.21234 16.0381 5.14734C15.9818 5.08018 15.9384 5.00001 15.9081 4.90684C15.8778 4.81368 15.8605 4.70859 15.8561 4.59159C15.854 4.53309 15.854 4.47568 15.8561 4.41934C15.8605 4.30668 15.8778 4.20376 15.9081 4.11059C15.9384 4.01743 15.9818 3.93726 16.0381 3.87009C16.0945 3.80076 16.1649 3.74768 16.2494 3.71084C16.336 3.67184 16.4357 3.65234 16.5484 3.65234C16.6675 3.65234 16.7694 3.67509 16.8539 3.72059C16.9384 3.76609 17.0077 3.82243 17.0619 3.88959V3.76609C17.0619 3.74443 17.0694 3.72601 17.0846 3.71084C17.0998 3.69351 17.1182 3.68484 17.1399 3.68484H17.4584C17.48 3.68484 17.4985 3.69351 17.5136 3.71084C17.531 3.72601 17.5396 3.74443 17.5396 3.76609L17.5429 5.32934C17.5429 5.49184 17.5115 5.62943 17.4486 5.74209C17.3858 5.85476 17.2926 5.94034 17.1691 5.99884C17.0478 6.05951 16.8961 6.08984 16.7141 6.08984ZM16.6979 4.97184C16.7759 4.97184 16.8387 4.95451 16.8864 4.91984C16.9362 4.88301 16.973 4.83751 16.9969 4.78334C17.0207 4.72701 17.0337 4.66851 17.0359 4.60784C17.038 4.58401 17.0391 4.55043 17.0391 4.50709C17.0391 4.46159 17.038 4.42693 17.0359 4.40309C17.0337 4.34243 17.0207 4.28501 16.9969 4.23084C16.973 4.17451 16.9362 4.12901 16.8864 4.09434C16.8387 4.05968 16.7759 4.04234 16.6979 4.04234C16.6155 4.04234 16.5505 4.06076 16.5029 4.09759C16.4552 4.13226 16.4205 4.17884 16.3989 4.23734C16.3772 4.29584 16.3642 4.35976 16.3599 4.42909C16.3577 4.48109 16.3577 4.53201 16.3599 4.58184C16.3642 4.65334 16.3772 4.71834 16.3989 4.77684C16.4205 4.83534 16.4552 4.88301 16.5029 4.91984C16.5505 4.95451 16.6155 4.97184 16.6979 4.97184Z" fill="white"/>
<path d="M15.1073 5.37575C15.0856 5.37575 15.0672 5.36817 15.052 5.353C15.0369 5.33783 15.0293 5.31833 15.0293 5.2945V3.767C15.0293 3.74317 15.0369 3.72367 15.052 3.7085C15.0672 3.69333 15.0856 3.68575 15.1073 3.68575H15.4323C15.4561 3.68575 15.4756 3.69333 15.4908 3.7085C15.5059 3.72367 15.5135 3.74317 15.5135 3.767V5.2945C15.5135 5.31833 15.5059 5.33783 15.4908 5.353C15.4756 5.36817 15.4561 5.37575 15.4323 5.37575H15.1073ZM15.0975 3.42575C15.0759 3.42575 15.0574 3.41817 15.0423 3.403C15.0271 3.38783 15.0195 3.36833 15.0195 3.3445V3.0845C15.0195 3.06067 15.0271 3.04117 15.0423 3.026C15.0574 3.00867 15.0759 3 15.0975 3H15.4388C15.4626 3 15.4821 3.00867 15.4973 3.026C15.5146 3.04117 15.5233 3.06067 15.5233 3.0845V3.3445C15.5233 3.36833 15.5146 3.38783 15.4973 3.403C15.4821 3.41817 15.4626 3.42575 15.4388 3.42575H15.0975Z" fill="white"/>
<path d="M12.842 5.37656C12.8182 5.37656 12.7987 5.36898 12.7835 5.35381C12.7683 5.33865 12.7607 5.31915 12.7607 5.29531V3.18281C12.7607 3.15898 12.7683 3.13948 12.7835 3.12431C12.7987 3.10915 12.8182 3.10156 12.842 3.10156H13.6577C13.8744 3.10156 14.0553 3.13623 14.2005 3.20556C14.3457 3.27273 14.4562 3.3724 14.532 3.50456C14.61 3.63456 14.6512 3.79598 14.6555 3.98881C14.6577 4.08415 14.6587 4.16756 14.6587 4.23906C14.6587 4.31056 14.6577 4.3929 14.6555 4.48606C14.649 4.68756 14.6089 4.8544 14.5352 4.98656C14.4616 5.11873 14.3532 5.21731 14.2102 5.28231C14.0672 5.34515 13.8885 5.37656 13.674 5.37656H12.842ZM13.2775 4.95731H13.6577C13.7661 4.95731 13.8549 4.94106 13.9242 4.90856C13.9936 4.87606 14.0445 4.82515 14.077 4.75581C14.1117 4.68431 14.1301 4.59223 14.1322 4.47956C14.1344 4.41673 14.1355 4.3604 14.1355 4.31056C14.1377 4.26073 14.1377 4.2109 14.1355 4.16106C14.1355 4.11123 14.1344 4.05598 14.1322 3.99531C14.1279 3.83281 14.0857 3.71365 14.0055 3.63781C13.9275 3.55981 13.8062 3.52081 13.6415 3.52081H13.2775V4.95731Z" fill="white"/>
<path d="M10.6204 5.40734C10.5056 5.40734 10.4027 5.38568 10.3117 5.34234C10.2207 5.29684 10.1481 5.23618 10.0939 5.16034C10.0398 5.08451 10.0127 5.00001 10.0127 4.90684C10.0127 4.75301 10.0744 4.63168 10.1979 4.54284C10.3236 4.45401 10.4883 4.39334 10.6919 4.36084L11.1177 4.29909V4.24059C11.1177 4.15609 11.0982 4.09109 11.0592 4.04559C11.0202 4.00009 10.9519 3.97734 10.8544 3.97734C10.7829 3.97734 10.7255 3.99143 10.6822 4.01959C10.6389 4.04776 10.6053 4.08459 10.5814 4.13009C10.5641 4.15826 10.5392 4.17234 10.5067 4.17234H10.1979C10.1741 4.17234 10.1557 4.16584 10.1427 4.15284C10.1297 4.13768 10.1243 4.12034 10.1264 4.10084C10.1264 4.06401 10.1405 4.02068 10.1687 3.97084C10.1969 3.92101 10.2402 3.87226 10.2987 3.82459C10.3572 3.77476 10.4319 3.73359 10.5229 3.70109C10.6139 3.66859 10.7255 3.65234 10.8577 3.65234C10.9942 3.65234 11.1112 3.66859 11.2087 3.70109C11.3062 3.73359 11.3842 3.77909 11.4427 3.83759C11.5012 3.89609 11.5445 3.96434 11.5727 4.04234C11.6009 4.11818 11.6149 4.20051 11.6149 4.28934V5.29359C11.6149 5.31743 11.6074 5.33693 11.5922 5.35209C11.577 5.36726 11.5575 5.37484 11.5337 5.37484H11.2152C11.1935 5.37484 11.1751 5.36726 11.1599 5.35209C11.1448 5.33693 11.1372 5.31743 11.1372 5.29359V5.17334C11.109 5.21451 11.0711 5.25351 11.0234 5.29034C10.9758 5.32501 10.9184 5.35318 10.8512 5.37484C10.7862 5.39651 10.7093 5.40734 10.6204 5.40734ZM10.7504 5.06934C10.8219 5.06934 10.8859 5.05418 10.9422 5.02384C10.9985 4.99351 11.0429 4.94693 11.0754 4.88409C11.1079 4.82126 11.1242 4.74218 11.1242 4.64684V4.59159L10.8219 4.64034C10.7049 4.65984 10.6194 4.68909 10.5652 4.72809C10.511 4.76709 10.4839 4.81476 10.4839 4.87109C10.4839 4.91226 10.4959 4.94801 10.5197 4.97834C10.5457 5.00868 10.5793 5.03143 10.6204 5.04659C10.6616 5.06176 10.7049 5.06934 10.7504 5.06934Z" fill="white"/>
<path d="M8.14441 5.37484C8.12274 5.37484 8.10432 5.36726 8.08916 5.35209C8.07399 5.33693 8.06641 5.31743 8.06641 5.29359V3.76609C8.06641 3.74226 8.07399 3.72276 8.08916 3.70759C8.10432 3.69243 8.12274 3.68484 8.14441 3.68484H8.46291C8.48674 3.68484 8.50624 3.69243 8.52141 3.70759C8.53657 3.72276 8.54416 3.74226 8.54416 3.76609V3.89284C8.60049 3.82351 8.67307 3.76609 8.76191 3.72059C8.85074 3.67509 8.95907 3.65234 9.08691 3.65234C9.21474 3.65234 9.32632 3.68159 9.42166 3.74009C9.51916 3.79643 9.59499 3.87984 9.64916 3.99034C9.70549 4.09868 9.73366 4.23084 9.73366 4.38684V5.29359C9.73366 5.31743 9.72499 5.33693 9.70766 5.35209C9.69249 5.36726 9.67407 5.37484 9.65241 5.37484H9.30791C9.28407 5.37484 9.26457 5.36726 9.24941 5.35209C9.23424 5.33693 9.22666 5.31743 9.22666 5.29359V4.40634C9.22666 4.29151 9.19849 4.20268 9.14216 4.13984C9.08799 4.07484 9.00782 4.04234 8.90166 4.04234C8.79982 4.04234 8.71857 4.07484 8.65791 4.13984C8.59724 4.20268 8.56691 4.29151 8.56691 4.40634V5.29359C8.56691 5.31743 8.55932 5.33693 8.54416 5.35209C8.52899 5.36726 8.51057 5.37484 8.48891 5.37484H8.14441Z" fill="white"/>
<path d="M6.67806 5.40734C6.56323 5.40734 6.46031 5.38568 6.36931 5.34234C6.27831 5.29684 6.20573 5.23618 6.15156 5.16034C6.0974 5.08451 6.07031 5.00001 6.07031 4.90684C6.07031 4.75301 6.13206 4.63168 6.25556 4.54284C6.38123 4.45401 6.5459 4.39334 6.74956 4.36084L7.17531 4.29909V4.24059C7.17531 4.15609 7.15581 4.09109 7.11681 4.04559C7.07781 4.00009 7.00956 3.97734 6.91206 3.97734C6.84056 3.97734 6.78315 3.99143 6.73981 4.01959C6.69648 4.04776 6.6629 4.08459 6.63906 4.13009C6.62173 4.15826 6.59681 4.17234 6.56431 4.17234H6.25556C6.23173 4.17234 6.21331 4.16584 6.20031 4.15284C6.18731 4.13768 6.1819 4.12034 6.18406 4.10084C6.18406 4.06401 6.19815 4.02068 6.22631 3.97084C6.25448 3.92101 6.29781 3.87226 6.35631 3.82459C6.41481 3.77476 6.48956 3.73359 6.58056 3.70109C6.67156 3.66859 6.78315 3.65234 6.91531 3.65234C7.05181 3.65234 7.16881 3.66859 7.26631 3.70109C7.36381 3.73359 7.44181 3.77909 7.50031 3.83759C7.55881 3.89609 7.60215 3.96434 7.63031 4.04234C7.65848 4.11818 7.67256 4.20051 7.67256 4.28934V5.29359C7.67256 5.31743 7.66498 5.33693 7.64981 5.35209C7.63465 5.36726 7.61515 5.37484 7.59131 5.37484H7.27281C7.25115 5.37484 7.23273 5.36726 7.21756 5.35209C7.2024 5.33693 7.19481 5.31743 7.19481 5.29359V5.17334C7.16665 5.21451 7.12873 5.25351 7.08106 5.29034C7.0334 5.32501 6.97598 5.35318 6.90881 5.37484C6.84381 5.39651 6.7669 5.40734 6.67806 5.40734ZM6.80806 5.06934C6.87956 5.06934 6.94348 5.05418 6.99981 5.02384C7.05615 4.99351 7.10056 4.94693 7.13306 4.88409C7.16556 4.82126 7.18181 4.74218 7.18181 4.64684V4.59159L6.87956 4.64034C6.76256 4.65984 6.67698 4.68909 6.62281 4.72809C6.56865 4.76709 6.54156 4.81476 6.54156 4.87109C6.54156 4.91226 6.55348 4.94801 6.57731 4.97834C6.60331 5.00868 6.6369 5.03143 6.67806 5.04659C6.71923 5.06176 6.76256 5.06934 6.80806 5.06934Z" fill="white"/>
<path d="M4.00526 5.37359C3.97492 5.37359 3.95109 5.36601 3.93376 5.35084C3.91859 5.33568 3.90667 5.31618 3.89801 5.29234L3.43326 3.78759C3.42892 3.77676 3.42676 3.76593 3.42676 3.75509C3.42676 3.73559 3.43326 3.71934 3.44626 3.70634C3.46142 3.69118 3.47876 3.68359 3.49826 3.68359H3.78426C3.81242 3.68359 3.83409 3.69118 3.84926 3.70634C3.86442 3.72151 3.87417 3.73559 3.87851 3.74859L4.17426 4.75284L4.48951 3.75509C4.49384 3.73993 4.50359 3.72476 4.51876 3.70959C4.53609 3.69226 4.55992 3.68359 4.59026 3.68359H4.77551C4.80584 3.68359 4.82859 3.69226 4.84376 3.70959C4.86109 3.72476 4.87192 3.73993 4.87626 3.75509L5.19151 4.75284L5.48726 3.74859C5.48942 3.73559 5.49809 3.72151 5.51326 3.70634C5.53059 3.69118 5.55226 3.68359 5.57826 3.68359H5.86426C5.88376 3.68359 5.90001 3.69118 5.91301 3.70634C5.92817 3.71934 5.93576 3.73559 5.93576 3.75509C5.93576 3.76593 5.93467 3.77676 5.93251 3.78759L5.46451 5.29234C5.45801 5.31618 5.44609 5.33568 5.42876 5.35084C5.41359 5.36601 5.39084 5.37359 5.36051 5.37359H5.11026C5.07992 5.37359 5.05609 5.36601 5.03876 5.35084C5.02142 5.33568 5.00842 5.31618 4.99976 5.29234L4.68451 4.33034L4.36276 5.29234C4.35626 5.31618 4.34434 5.33568 4.32701 5.35084C4.30967 5.36601 4.28584 5.37359 4.25551 5.37359H4.00526Z" fill="white"/>
<path d="M1.23036 5.37656C1.21086 5.37656 1.19461 5.37006 1.18161 5.35706C1.16861 5.3419 1.16211 5.32565 1.16211 5.30831C1.16211 5.29748 1.16319 5.28773 1.16536 5.27906L1.93886 3.18931C1.94536 3.16548 1.95836 3.1449 1.97786 3.12756C1.99736 3.11023 2.02444 3.10156 2.05911 3.10156H2.47511C2.50978 3.10156 2.53686 3.11023 2.55636 3.12756C2.57586 3.1449 2.58886 3.16548 2.59536 3.18931L3.36886 5.27906C3.37103 5.28773 3.37211 5.29748 3.37211 5.30831C3.37211 5.32565 3.36561 5.3419 3.35261 5.35706C3.33961 5.37006 3.32336 5.37656 3.30386 5.37656H2.96586C2.93336 5.37656 2.90953 5.36898 2.89436 5.35381C2.87919 5.33865 2.86944 5.32456 2.86511 5.31156L2.72536 4.94756H1.80886L1.66911 5.31156C1.66478 5.32456 1.65503 5.33865 1.63986 5.35381C1.62469 5.36898 1.60086 5.37656 1.56836 5.37656H1.23036ZM1.92911 4.52831H2.60186L2.26711 3.59231L1.92911 4.52831Z" fill="white"/>
</g>
<defs>
<clipPath id="clip0_6455_3550">
<rect width="24" height="24" fill="white"/>
</clipPath>
</defs>
</svg>
