<svg width="100" height="100" viewBox="0 0 100 100" fill="none" xmlns="http://www.w3.org/2000/svg">
<path d="M76.4754 88.6024H23.3401C19.6871 88.6024 16.6982 86.0311 16.6982 82.8885V53.0335C16.7199 52.0705 16.9914 51.1296 17.4863 50.3032C17.9812 49.4768 18.6823 48.7933 19.521 48.3196L49.9076 30.0352L80.2942 48.3196C81.1445 48.7796 81.8553 49.4601 82.3519 50.2895C82.8486 51.1189 83.1129 52.0667 83.117 53.0335V82.8885C83.1174 86.0308 80.1285 88.6024 76.4754 88.6024Z" fill="#78909C"/>
<path d="M29.9814 38.7383H69.8332V77.1746H29.9814V38.7383Z" fill="white" stroke="#741B47" stroke-width="0.2169" stroke-miterlimit="10"/>
<path d="M49.9072 42.3398L39.9443 55.3147H59.8703L49.9072 42.3398Z" fill="#741B47"/>
<path d="M76.4754 88.6035H23.3401C19.6871 88.6035 16.6982 86.0322 16.6982 82.8896V54.3203L49.9082 72.8903L83.1182 54.3203V82.8896C83.1174 86.0319 80.1285 88.6035 76.4754 88.6035Z" fill="#CFD8DC"/>
<path d="M49.9079 72.4314L53.2292 70.5746V55.3164H46.5869V70.5746L49.9079 72.4314Z" fill="#741B47"/>
<rect x="12" y="9" width="76" height="15" fill="#741B47"/>
<path d="M16.8632 20C16.8032 20 16.7532 19.98 16.7132 19.94C16.6732 19.8933 16.6532 19.8433 16.6532 19.79C16.6532 19.7567 16.6565 19.7267 16.6632 19.7L19.0432 13.27C19.0632 13.1967 19.1032 13.1333 19.1632 13.08C19.2232 13.0267 19.3065 13 19.4132 13H20.6932C20.7999 13 20.8832 13.0267 20.9432 13.08C21.0032 13.1333 21.0432 13.1967 21.0632 13.27L23.4432 19.7C23.4499 19.7267 23.4532 19.7567 23.4532 19.79C23.4532 19.8433 23.4332 19.8933 23.3932 19.94C23.3532 19.98 23.3032 20 23.2432 20H22.2032C22.1032 20 22.0299 19.9767 21.9832 19.93C21.9365 19.8833 21.9065 19.84 21.8932 19.8L21.4632 18.68H18.6432L18.2132 19.8C18.1999 19.84 18.1699 19.8833 18.1232 19.93C18.0765 19.9767 18.0032 20 17.9032 20H16.8632ZM19.0132 17.39H21.0832L20.0532 14.51L19.0132 17.39ZM25.3998 20C25.3065 20 25.2332 19.9767 25.1798 19.93C25.1332 19.8833 25.0965 19.8233 25.0698 19.75L23.6398 15.12C23.6265 15.0867 23.6198 15.0533 23.6198 15.02C23.6198 14.96 23.6398 14.91 23.6798 14.87C23.7265 14.8233 23.7798 14.8 23.8398 14.8H24.7198C24.8065 14.8 24.8732 14.8233 24.9198 14.87C24.9665 14.9167 24.9965 14.96 25.0098 15L25.9198 18.09L26.8898 15.02C26.9032 14.9733 26.9332 14.9267 26.9798 14.88C27.0332 14.8267 27.1065 14.8 27.1998 14.8H27.7698C27.8632 14.8 27.9332 14.8267 27.9798 14.88C28.0332 14.9267 28.0665 14.9733 28.0798 15.02L29.0498 18.09L29.9598 15C29.9665 14.96 29.9932 14.9167 30.0398 14.87C30.0932 14.8233 30.1598 14.8 30.2398 14.8H31.1198C31.1798 14.8 31.2298 14.8233 31.2698 14.87C31.3165 14.91 31.3398 14.96 31.3398 15.02C31.3398 15.0533 31.3365 15.0867 31.3298 15.12L29.8898 19.75C29.8698 19.8233 29.8332 19.8833 29.7798 19.93C29.7332 19.9767 29.6632 20 29.5698 20H28.7998C28.7065 20 28.6332 19.9767 28.5798 19.93C28.5265 19.8833 28.4865 19.8233 28.4598 19.75L27.4898 16.79L26.4998 19.75C26.4798 19.8233 26.4432 19.8833 26.3898 19.93C26.3365 19.9767 26.2632 20 26.1698 20H25.3998ZM33.6248 20.1C33.2715 20.1 32.9548 20.0333 32.6748 19.9C32.3948 19.76 32.1715 19.5733 32.0048 19.34C31.8382 19.1067 31.7548 18.8467 31.7548 18.56C31.7548 18.0867 31.9448 17.7133 32.3248 17.44C32.7115 17.1667 33.2182 16.98 33.8448 16.88L35.1548 16.69V16.51C35.1548 16.25 35.0948 16.05 34.9748 15.91C34.8548 15.77 34.6448 15.7 34.3448 15.7C34.1248 15.7 33.9482 15.7433 33.8148 15.83C33.6815 15.9167 33.5782 16.03 33.5048 16.17C33.4515 16.2567 33.3748 16.3 33.2748 16.3H32.3248C32.2515 16.3 32.1948 16.28 32.1548 16.24C32.1148 16.1933 32.0982 16.14 32.1048 16.08C32.1048 15.9667 32.1482 15.8333 32.2348 15.68C32.3215 15.5267 32.4548 15.3767 32.6348 15.23C32.8148 15.0767 33.0448 14.95 33.3248 14.85C33.6048 14.75 33.9482 14.7 34.3548 14.7C34.7748 14.7 35.1348 14.75 35.4348 14.85C35.7348 14.95 35.9748 15.09 36.1548 15.27C36.3348 15.45 36.4682 15.66 36.5548 15.9C36.6415 16.1333 36.6848 16.3867 36.6848 16.66V19.75C36.6848 19.8233 36.6615 19.8833 36.6148 19.93C36.5682 19.9767 36.5082 20 36.4348 20H35.4548C35.3882 20 35.3315 19.9767 35.2848 19.93C35.2382 19.8833 35.2148 19.8233 35.2148 19.75V19.38C35.1282 19.5067 35.0115 19.6267 34.8648 19.74C34.7182 19.8467 34.5415 19.9333 34.3348 20C34.1348 20.0667 33.8982 20.1 33.6248 20.1ZM34.0248 19.06C34.2448 19.06 34.4415 19.0133 34.6148 18.92C34.7882 18.8267 34.9248 18.6833 35.0248 18.49C35.1248 18.2967 35.1748 18.0533 35.1748 17.76V17.59L34.2448 17.74C33.8848 17.8 33.6215 17.89 33.4548 18.01C33.2882 18.13 33.2048 18.2767 33.2048 18.45C33.2048 18.5767 33.2415 18.6867 33.3148 18.78C33.3948 18.8733 33.4982 18.9433 33.6248 18.99C33.7515 19.0367 33.8848 19.06 34.0248 19.06ZM38.1356 20C38.069 20 38.0123 19.9767 37.9656 19.93C37.919 19.8833 37.8956 19.8233 37.8956 19.75V15.05C37.8956 14.9767 37.919 14.9167 37.9656 14.87C38.0123 14.8233 38.069 14.8 38.1356 14.8H39.1156C39.189 14.8 39.249 14.8233 39.2956 14.87C39.3423 14.9167 39.3656 14.9767 39.3656 15.05V15.44C39.539 15.2267 39.7623 15.05 40.0356 14.91C40.309 14.77 40.6423 14.7 41.0356 14.7C41.429 14.7 41.7723 14.79 42.0656 14.97C42.3656 15.1433 42.599 15.4 42.7656 15.74C42.939 16.0733 43.0256 16.48 43.0256 16.96V19.75C43.0256 19.8233 42.999 19.8833 42.9456 19.93C42.899 19.9767 42.8423 20 42.7756 20H41.7156C41.6423 20 41.5823 19.9767 41.5356 19.93C41.489 19.8833 41.4656 19.8233 41.4656 19.75V17.02C41.4656 16.6667 41.379 16.3933 41.2056 16.2C41.039 16 40.7923 15.9 40.4656 15.9C40.1523 15.9 39.9023 16 39.7156 16.2C39.529 16.3933 39.4356 16.6667 39.4356 17.02V19.75C39.4356 19.8233 39.4123 19.8833 39.3656 19.93C39.319 19.9767 39.2623 20 39.1956 20H38.1356ZM45.7538 20.1C45.4004 20.1 45.0838 20.0333 44.8038 19.9C44.5238 19.76 44.3004 19.5733 44.1338 19.34C43.9671 19.1067 43.8838 18.8467 43.8838 18.56C43.8838 18.0867 44.0738 17.7133 44.4538 17.44C44.8404 17.1667 45.3471 16.98 45.9738 16.88L47.2838 16.69V16.51C47.2838 16.25 47.2238 16.05 47.1038 15.91C46.9838 15.77 46.7738 15.7 46.4738 15.7C46.2538 15.7 46.0771 15.7433 45.9438 15.83C45.8104 15.9167 45.7071 16.03 45.6338 16.17C45.5804 16.2567 45.5038 16.3 45.4038 16.3H44.4538C44.3804 16.3 44.3238 16.28 44.2838 16.24C44.2438 16.1933 44.2271 16.14 44.2338 16.08C44.2338 15.9667 44.2771 15.8333 44.3638 15.68C44.4504 15.5267 44.5838 15.3767 44.7638 15.23C44.9438 15.0767 45.1738 14.95 45.4538 14.85C45.7338 14.75 46.0771 14.7 46.4838 14.7C46.9038 14.7 47.2638 14.75 47.5638 14.85C47.8638 14.95 48.1038 15.09 48.2838 15.27C48.4638 15.45 48.5971 15.66 48.6838 15.9C48.7704 16.1333 48.8138 16.3867 48.8138 16.66V19.75C48.8138 19.8233 48.7904 19.8833 48.7438 19.93C48.6971 19.9767 48.6371 20 48.5638 20H47.5838C47.5171 20 47.4604 19.9767 47.4138 19.93C47.3671 19.8833 47.3438 19.8233 47.3438 19.75V19.38C47.2571 19.5067 47.1404 19.6267 46.9938 19.74C46.8471 19.8467 46.6704 19.9333 46.4638 20C46.2637 20.0667 46.0271 20.1 45.7538 20.1ZM46.1538 19.06C46.3738 19.06 46.5704 19.0133 46.7438 18.92C46.9171 18.8267 47.0538 18.6833 47.1538 18.49C47.2538 18.2967 47.3038 18.0533 47.3038 17.76V17.59L46.3738 17.74C46.0138 17.8 45.7504 17.89 45.5838 18.01C45.4171 18.13 45.3338 18.2767 45.3338 18.45C45.3338 18.5767 45.3704 18.6867 45.4438 18.78C45.5238 18.8733 45.6271 18.9433 45.7538 18.99C45.8804 19.0367 46.0138 19.06 46.1538 19.06ZM52.5916 20C52.5182 20 52.4582 19.9767 52.4116 19.93C52.3649 19.8833 52.3416 19.8233 52.3416 19.75V13.25C52.3416 13.1767 52.3649 13.1167 52.4116 13.07C52.4582 13.0233 52.5182 13 52.5916 13H55.1016C55.7682 13 56.3249 13.1067 56.7716 13.32C57.2182 13.5267 57.5582 13.8333 57.7916 14.24C58.0316 14.64 58.1582 15.1367 58.1716 15.73C58.1782 16.0233 58.1816 16.28 58.1816 16.5C58.1816 16.72 58.1782 16.9733 58.1716 17.26C58.1516 17.88 58.0282 18.3933 57.8016 18.8C57.5749 19.2067 57.2416 19.51 56.8016 19.71C56.3616 19.9033 55.8116 20 55.1516 20H52.5916ZM53.9316 18.71H55.1016C55.4349 18.71 55.7082 18.66 55.9216 18.56C56.1349 18.46 56.2916 18.3033 56.3916 18.09C56.4982 17.87 56.5549 17.5867 56.5616 17.24C56.5682 17.0467 56.5716 16.8733 56.5716 16.72C56.5782 16.5667 56.5782 16.4133 56.5716 16.26C56.5716 16.1067 56.5682 15.9367 56.5616 15.75C56.5482 15.25 56.4182 14.8833 56.1716 14.65C55.9316 14.41 55.5582 14.29 55.0516 14.29H53.9316V18.71ZM59.5614 20C59.4947 20 59.4381 19.9767 59.3914 19.93C59.3447 19.8833 59.3214 19.8233 59.3214 19.75V15.05C59.3214 14.9767 59.3447 14.9167 59.3914 14.87C59.4381 14.8233 59.4947 14.8 59.5614 14.8H60.5614C60.6347 14.8 60.6947 14.8233 60.7414 14.87C60.7881 14.9167 60.8114 14.9767 60.8114 15.05V19.75C60.8114 19.8233 60.7881 19.8833 60.7414 19.93C60.6947 19.9767 60.6347 20 60.5614 20H59.5614ZM59.5314 14C59.4647 14 59.4081 13.9767 59.3614 13.93C59.3147 13.8833 59.2914 13.8233 59.2914 13.75V12.95C59.2914 12.8767 59.3147 12.8167 59.3614 12.77C59.4081 12.7167 59.4647 12.69 59.5314 12.69H60.5814C60.6547 12.69 60.7147 12.7167 60.7614 12.77C60.8147 12.8167 60.8414 12.8767 60.8414 12.95V13.75C60.8414 13.8233 60.8147 13.8833 60.7614 13.93C60.7147 13.9767 60.6547 14 60.5814 14H59.5314ZM64.5055 22.2C64.0122 22.2 63.6022 22.1333 63.2755 22C62.9489 21.8733 62.6889 21.7167 62.4955 21.53C62.3089 21.35 62.1755 21.17 62.0955 20.99C62.0155 20.81 61.9722 20.67 61.9655 20.57C61.9589 20.4967 61.9822 20.4367 62.0355 20.39C62.0889 20.3433 62.1489 20.32 62.2155 20.32H63.2855C63.3455 20.32 63.3955 20.3333 63.4355 20.36C63.4822 20.3933 63.5189 20.4467 63.5455 20.52C63.5789 20.6 63.6255 20.6833 63.6855 20.77C63.7455 20.8633 63.8355 20.94 63.9555 21C64.0822 21.06 64.2489 21.09 64.4555 21.09C64.6889 21.09 64.8822 21.0567 65.0355 20.99C65.1889 20.9233 65.3022 20.81 65.3755 20.65C65.4555 20.49 65.4955 20.2733 65.4955 20V19.33C65.3355 19.5033 65.1322 19.6467 64.8855 19.76C64.6455 19.8733 64.3489 19.93 63.9955 19.93C63.6489 19.93 63.3422 19.8767 63.0755 19.77C62.8155 19.6567 62.5989 19.5 62.4255 19.3C62.2522 19.0933 62.1189 18.8467 62.0255 18.56C61.9322 18.2733 61.8789 17.95 61.8655 17.59C61.8589 17.41 61.8589 17.2333 61.8655 17.06C61.8789 16.7133 61.9322 16.3967 62.0255 16.11C62.1189 15.8233 62.2522 15.5767 62.4255 15.37C62.5989 15.1567 62.8155 14.9933 63.0755 14.88C63.3422 14.76 63.6489 14.7 63.9955 14.7C64.3622 14.7 64.6755 14.77 64.9355 14.91C65.1955 15.05 65.4089 15.2233 65.5755 15.43V15.05C65.5755 14.9833 65.5989 14.9267 65.6455 14.88C65.6922 14.8267 65.7489 14.8 65.8155 14.8H66.7955C66.8622 14.8 66.9189 14.8267 66.9655 14.88C67.0189 14.9267 67.0455 14.9833 67.0455 15.05L67.0555 19.86C67.0555 20.36 66.9589 20.7833 66.7655 21.13C66.5722 21.4767 66.2855 21.74 65.9055 21.92C65.5322 22.1067 65.0655 22.2 64.5055 22.2ZM64.4555 18.76C64.6955 18.76 64.8889 18.7067 65.0355 18.6C65.1889 18.4867 65.3022 18.3467 65.3755 18.18C65.4489 18.0067 65.4889 17.8267 65.4955 17.64C65.5022 17.5667 65.5055 17.4633 65.5055 17.33C65.5055 17.19 65.5022 17.0833 65.4955 17.01C65.4889 16.8233 65.4489 16.6467 65.3755 16.48C65.3022 16.3067 65.1889 16.1667 65.0355 16.06C64.8889 15.9533 64.6955 15.9 64.4555 15.9C64.2022 15.9 64.0022 15.9567 63.8555 16.07C63.7089 16.1767 63.6022 16.32 63.5355 16.5C63.4689 16.68 63.4289 16.8767 63.4155 17.09C63.4089 17.25 63.4089 17.4067 63.4155 17.56C63.4289 17.78 63.4689 17.98 63.5355 18.16C63.6022 18.34 63.7089 18.4867 63.8555 18.6C64.0022 18.7067 64.2022 18.76 64.4555 18.76ZM68.5555 20C68.4889 20 68.4322 19.9767 68.3855 19.93C68.3389 19.8833 68.3155 19.8233 68.3155 19.75V15.05C68.3155 14.9767 68.3389 14.9167 68.3855 14.87C68.4322 14.8233 68.4889 14.8 68.5555 14.8H69.5555C69.6289 14.8 69.6889 14.8233 69.7355 14.87C69.7822 14.9167 69.8055 14.9767 69.8055 15.05V19.75C69.8055 19.8233 69.7822 19.8833 69.7355 19.93C69.6889 19.9767 69.6289 20 69.5555 20H68.5555ZM68.5255 14C68.4589 14 68.4022 13.9767 68.3555 13.93C68.3089 13.8833 68.2855 13.8233 68.2855 13.75V12.95C68.2855 12.8767 68.3089 12.8167 68.3555 12.77C68.4022 12.7167 68.4589 12.69 68.5255 12.69H69.5755C69.6489 12.69 69.7089 12.7167 69.7555 12.77C69.8089 12.8167 69.8355 12.8767 69.8355 12.95V13.75C69.8355 13.8233 69.8089 13.8833 69.7555 13.93C69.7089 13.9767 69.6489 14 69.5755 14H68.5255ZM73.5597 20C73.1464 20 72.793 19.9333 72.4997 19.8C72.2064 19.66 71.983 19.4467 71.8297 19.16C71.683 18.8733 71.6097 18.5133 71.6097 18.08V15.98H70.8297C70.7564 15.98 70.6964 15.9567 70.6497 15.91C70.603 15.8633 70.5797 15.8033 70.5797 15.73V15.05C70.5797 14.9767 70.603 14.9167 70.6497 14.87C70.6964 14.8233 70.7564 14.8 70.8297 14.8H71.6097V13.15C71.6097 13.0767 71.633 13.0167 71.6797 12.97C71.733 12.9233 71.793 12.9 71.8597 12.9H72.8397C72.913 12.9 72.973 12.9233 73.0197 12.97C73.0664 13.0167 73.0897 13.0767 73.0897 13.15V14.8H74.3397C74.4064 14.8 74.463 14.8233 74.5097 14.87C74.5564 14.9167 74.5797 14.9767 74.5797 15.05V15.73C74.5797 15.8033 74.5564 15.8633 74.5097 15.91C74.463 15.9567 74.4064 15.98 74.3397 15.98H73.0897V17.96C73.0897 18.2133 73.133 18.4133 73.2197 18.56C73.313 18.7 73.473 18.77 73.6997 18.77H74.4297C74.4964 18.77 74.553 18.7933 74.5997 18.84C74.6464 18.8867 74.6697 18.9433 74.6697 19.01V19.75C74.6697 19.8233 74.6464 19.8833 74.5997 19.93C74.553 19.9767 74.4964 20 74.4297 20H73.5597ZM77.0721 20.1C76.7188 20.1 76.4021 20.0333 76.1221 19.9C75.8421 19.76 75.6188 19.5733 75.4521 19.34C75.2854 19.1067 75.2021 18.8467 75.2021 18.56C75.2021 18.0867 75.3921 17.7133 75.7721 17.44C76.1588 17.1667 76.6654 16.98 77.2921 16.88L78.6021 16.69V16.51C78.6021 16.25 78.5421 16.05 78.4221 15.91C78.3021 15.77 78.0921 15.7 77.7921 15.7C77.5721 15.7 77.3954 15.7433 77.2621 15.83C77.1288 15.9167 77.0254 16.03 76.9521 16.17C76.8988 16.2567 76.8221 16.3 76.7221 16.3H75.7721C75.6988 16.3 75.6421 16.28 75.6021 16.24C75.5621 16.1933 75.5454 16.14 75.5521 16.08C75.5521 15.9667 75.5954 15.8333 75.6821 15.68C75.7688 15.5267 75.9021 15.3767 76.0821 15.23C76.2621 15.0767 76.4921 14.95 76.7721 14.85C77.0521 14.75 77.3954 14.7 77.8021 14.7C78.2221 14.7 78.5821 14.75 78.8821 14.85C79.1821 14.95 79.4221 15.09 79.6021 15.27C79.7821 15.45 79.9154 15.66 80.0021 15.9C80.0888 16.1333 80.1321 16.3867 80.1321 16.66V19.75C80.1321 19.8233 80.1088 19.8833 80.0621 19.93C80.0154 19.9767 79.9554 20 79.8821 20H78.9021C78.8354 20 78.7788 19.9767 78.7321 19.93C78.6854 19.8833 78.6621 19.8233 78.6621 19.75V19.38C78.5754 19.5067 78.4588 19.6267 78.3121 19.74C78.1654 19.8467 77.9888 19.9333 77.7821 20C77.5821 20.0667 77.3454 20.1 77.0721 20.1ZM77.4721 19.06C77.6921 19.06 77.8888 19.0133 78.0621 18.92C78.2354 18.8267 78.3721 18.6833 78.4721 18.49C78.5721 18.2967 78.6221 18.0533 78.6221 17.76V17.59L77.6921 17.74C77.3321 17.8 77.0688 17.89 76.9021 18.01C76.7354 18.13 76.6521 18.2767 76.6521 18.45C76.6521 18.5767 76.6888 18.6867 76.7621 18.78C76.8421 18.8733 76.9454 18.9433 77.0721 18.99C77.1988 19.0367 77.3321 19.06 77.4721 19.06ZM81.5929 20C81.5196 20 81.4596 19.9767 81.4129 19.93C81.3662 19.8833 81.3429 19.8233 81.3429 19.75V13.15C81.3429 13.0767 81.3662 13.0167 81.4129 12.97C81.4596 12.9233 81.5196 12.9 81.5929 12.9H82.5929C82.6596 12.9 82.7162 12.9233 82.7629 12.97C82.8096 13.0167 82.8329 13.0767 82.8329 13.15V19.75C82.8329 19.8233 82.8096 19.8833 82.7629 19.93C82.7162 19.9767 82.6596 20 82.5929 20H81.5929Z" fill="white"/>
</svg>
